# AST/ASF file generated using VICON BodyLanguage
# -----------------------------------------------
:version 1.10
:name VICON
:units
  mass 1.0
  length 0.45
  angle deg
:documentation
   .ast/.asf automatically generated from VICON data using
   VICON BodyBuilder and BodyLanguage model FoxedUp or BRILLIANT.MOD
:root
   order TX TY TZ RX RY RZ
   axis XYZ
   position 0 0 0  
   orientation 0 0 0 
:bonedata
  begin
     id 1 
     name lhipjoint
     direction 0.577973 -0.728611 0.367523 
     length 2.48544 
     axis 0 0 0  XYZ
  end
  begin
     id 2 
     name lfemur
     direction 0.34202 -0.939693 0  
     length 7.1921  
     axis 0 0 20  XYZ
    dof rx ry rz
    limits (-160.0 20.0)
           (-70.0 70.0)
           (-60.0 70.0)
  end
  begin
     id 3 
     name ltibia
     direction 0.34202 -0.939693 0   
     length 7.71059   
     axis 0 0 20   XYZ
    dof rx
    limits (-10.0 170.0)
  end
  begin
     id 4 
     name lfoot
     direction 0.089538 -0.246004 0.965124   
     length 2.19909   
     axis -90 7.62852e-016 20   XYZ
    dof rx rz
    limits (-45.0 90.0)
           (-70.0 20.0)
  end
  begin
     id 5 
     name ltoes
     direction 1.53544e-011 -4.21829e-011 1   
     length 1.10116   
     axis -90 7.62852e-016 20   XYZ
    dof rx
    limits (-90.0 20.0)
  end
  begin
     id 6 
     name rhipjoint
     direction -0.554414 -0.743062 0.374812   
     length 2.4371  
     axis 0 0 0  XYZ 
  end
  begin
     id 7 
     name rfemur
     direction -0.34202 -0.939693 0   
     length 7.47254   
     axis 0 0 -20   XYZ
    dof rx ry rz
    limits (-160.0 20.0)
           (-70.0 70.0)
           (-70.0 60.0)
  end
  begin
     id 8 
     name rtibia
     direction -0.34202 -0.939693 0   
     length 7.65855   
     axis 0 0 -20   XYZ
    dof rx
    limits (-10.0 170.0)
 end
 begin
     id 9 
     name rfoot
     direction -0.133779 -0.367555 0.92033   
     length 2.43006  
     axis -90 -7.62852e-016 -20   XYZ
    dof rx rz
    limits (-45.0 90.0)
           (-20.0 70.0)
  end
  begin
     id 10 
     name rtoes
     direction -1.53563e-011 -4.21889e-011 1   
     length 1.19625   
     axis -90 -7.62852e-016 -20   XYZ
    dof rx
    limits (-90.0 20.0)
  end
  begin
     id 11 
     name lowerback
     direction 0.0249066 0.998043 -0.0573585   
     length 2.08485   
     axis 0 0 0   XYZ
    dof rx ry rz
    limits (-20.0 45.0)
           (-30.0 30.0)
           (-30.0 30.0)
  end
  begin
     id 12 
     name upperback
     direction 0.0237884 0.999673 0.00943178   
     length 2.08515   
     axis 0 0 0   XYZ
    dof rx ry rz
    limits (-20.0 45.0)
           (-30.0 30.0)
           (-30.0 30.0)
  end
  begin
     id 13 
     name thorax
     direction 0.0106671 0.999301 0.0358174   
     length 2.09037   
     axis 0 0 0   XYZ
    dof rx ry rz
    limits (-20.0 45.0)
           (-30.0 30.0)
           (-30.0 30.0)
  end
  begin
     id 14 
     name lowerneck
     direction -0.0580016 0.987052 0.149546   
     length 1.84454   
     axis 0 0 0   XYZ
    dof rx ry rz
    limits (-20.0 45.0)
           (-30.0 30.0)
           (-30.0 30.0)
  end
  begin
     id 15 
     name upperneck
     direction 0.079456 0.981963 -0.171567   
     length 1.88141   
     axis 0 0 0   XYZ
    dof rx ry rz
    limits (-20.0 45.0)
           (-30.0 30.0)
           (-30.0 30.0)
  end
  begin
     id 16
     name head
     direction 0.0262167 0.9967 -0.0768276  
     length 1.89541  
     axis 0 0 0   XYZ
    dof rx ry rz
    limits (-20.0 45.0)
           (-30.0 30.0)
           (-30.0 30.0)
  end
  begin
     id 17 
     name lclavicle
     direction 0.946135 0.322134 -0.0325326  
     length 3.949  
     axis 0 0 0   XYZ
    dof ry rz
    limits (-20.0 10.0)
           (0.0 20.0)
  end
  begin
     id 18 
     name lhumerus
     direction 1 -4.48964e-011 1.94005e-028   
     length 5.10995   
     axis 180 -30 -90   XYZ
    dof rx ry rz
    limits (-60.0 90.0)
           (-90.0 90.0)
           (-90.0 90.0)
  end
  begin
     id 19
     name lradius
     direction 1 -4.48976e-011 2.87852e-027   
     length 3.21207   
     axis 180 -30 -90   XYZ
    dof rx
    limits (-10.0 170.0)
  end
  begin
     id 20
     name lwrist
     direction 1 -4.48963e-011 1.9975e-027   
     length 1.60604   
     axis 2.96054e-016 90 90   XYZ
    dof ry
    limits (-180.0 0.0)
 end
  begin
     id 21 
     name lhand
     direction 1 -4.48919e-011 4.00227e-027   
     length 0.63349   
     axis -2.5488e-015 90 90   XYZ
    dof rx rz
    limits (-90.0 90.0)
           (-45.0 45.0)
  end
  begin
     id 22 
     name lfingers
     direction 1 -4.49037e-011 7.9652e-027   
     length 0.510736   
     axis -5.0975e-015 90 90   XYZ
    dof rx
    limits (0.0 90.0)
  end
  begin
     id 23
     name lthumb
     direction 0.707107 -6.34922e-011 0.707107   
     length 0.733318   
     axis -90 45 -4.48553e-014   XYZ
    dof rx rz
    limits (-45.0 45.0)
           (-45.0 45.0)
  end
  begin
     id 24 
     name rclavicle
     direction -0.940085 0.328911 -0.0897654   
     length 3.93848  
     axis 0 0 0   XYZ 
    dof ry rz
    limits (-10.0 20.0)
           (-20.0 0.0)
  end
  begin
     id 25 
     name rhumerus
     direction -1 -4.48958e-011 3.02044e-027  
     length 5.25109   
     axis 180 30 90   XYZ
    dof rx ry rz
    limits (-90.0 60.0)
           (-90.0 90.0)
           (-90.0 90.0)
  end
  begin
     id 26 
     name rradius
     direction -1 -4.4897e-011 9.78352e-028   
     length 3.28364   
     axis 180 30 90   XYZ
    dof rx
    limits (-10.0 170.0)
  end
  begin
     id 27 
     name rwrist
     direction -1 -4.48943e-011 1.99918e-027   
     length 1.64182   
     axis 2.96054e-016 -90 -90   XYZ
    dof ry
    limits (-180.0 0.0)
  end
  begin
     id 28
     name rhand
     direction -1 -4.49024e-011 3.98478e-027   
     length 0.599745   
     axis -2.5488e-015 -90 -90   XYZ
    dof rx rz
    limits (-90.0 90.0)
           (-45.0 45.0)
  end
  begin
     id 29
     name rfingers
     direction -1 -4.48914e-011 8.00621e-027   
     length 0.48353   
     axis -5.0975e-015 -90 -90   XYZ
    dof rx
    limits (0.0 90.0)
  end
  begin
     id 30
     name rthumb
     direction -0.707107 -6.34992e-011 0.707107   
     length 0.694255   
     axis -90 -45 4.48553e-014   XYZ
    dof rx rz
    limits (-45.0 45.0)
           (-45.0 45.0)
  end
:hierarchy
  begin
    root lhipjoint rhipjoint lowerback
    lhipjoint lfemur
    lfemur ltibia
    ltibia lfoot
    lfoot ltoes
    rhipjoint rfemur
    rfemur rtibia
    rtibia rfoot
    rfoot rtoes
    lowerback upperback
    upperback thorax
    thorax lowerneck lclavicle rclavicle
    lowerneck upperneck
    upperneck head
    lclavicle lhumerus
    lhumerus lradius
    lradius lwrist
    lwrist lhand lthumb
    lhand lfingers
    rclavicle rhumerus
    rhumerus rradius
    rradius rwrist
    rwrist rhand rthumb
    rhand rfingers
  end

#!OML:ASF E:\CV Data\Top Level 1\Subject 1\Session 1\player.ASF
:FULLY-SPECIFIED
:DEGREES
1010
root 5.72674 17.9046 -6.54484 26.6744 -69.3811 -25.2449
lowerback 20.3201 -1.38001 4.7008
upperback 6.58799 -1.04653 4.60211
thorax -4.18664 -0.714452 2.51545
lowerneck -19.2187 13.0582 -5.58473
upperneck 8.45455 18.8628 -0.209096
head 5.08674 9.0036 2.50445
rclavicle -2.62396e-014 6.1822e-014
rhumerus 116.71 226.509 178.278
rradius 28.3201
rwrist -23.7688
rhand -33.6268 9.60817
rfingers 7.12502
rthumb -6.81933 -20.262
lclavicle -2.62396e-014 6.1822e-014
lhumerus -18.5927 -30.4298 11.134
lradius 20.7835
lwrist -22.5298
lhand -4.92428 13.448
lfingers 7.12502
lthumb 20.8662 42.3458
rfemur -9.21122 -4.16339 23.3773
rtibia 30.1315
rfoot -10.2284 -11.9696
rtoes -12.2859
lfemur -65.2247 18.2286 -9.91111
ltibia 27.1051
lfoot -8.92263 13.2798
ltoes -19.654
1011
root 5.71103 17.9257 -6.44688 26.4106 -68.7636 -24.4838
lowerback 20.4217 -1.42658 4.60159
upperback 6.56552 -1.11052 4.65212
thorax -4.26057 -0.745813 2.64493
lowerneck -19.2351 12.9827 -5.56289
upperneck 8.23091 18.7552 -0.283827
head 5.03104 8.95546 2.46162
rclavicle -2.0773e-014 3.55825e-014
rhumerus 116.931 225.815 179.178
rradius 29.4502
rwrist -25.2864
rhand -33.8329 9.84614
rfingers 7.12502
rthumb -7.01823 -20.0175
lclavicle -2.0773e-014 3.55825e-014
lhumerus -20.2025 -30.7003 11.5701
lradius 20.8025
lwrist -22.7008
lhand -4.91844 13.4718
lfingers 7.12502
lthumb 20.8718 42.369
rfemur -9.51691 -4.36431 23.0968
rtibia 30.091
rfoot -9.84182 -12.2097
rtoes -12.6597
lfemur -64.8925 18.3183 -9.8154
ltibia 27.2063
lfoot -9.02485 13.5802
ltoes -19.6115
1012
root 5.69554 17.9428 -6.34602 26.1648 -68.1693 -23.7555
lowerback 20.5194 -1.47075 4.51834
upperback 6.55691 -1.17104 4.68532
thorax -4.31778 -0.775174 2.7462
lowerneck -19.2806 12.9133 -5.5105
upperneck 8.02334 18.6515 -0.363412
head 4.98787 8.90846 2.41698
rclavicle -1.32192e-014 6.34123e-014
rhumerus 117.181 225.121 180.028
rradius 30.6442
rwrist -26.7131
rhand -33.9957 10.1383
rfingers 7.12502
rthumb -7.17539 -19.72
lclavicle -1.32192e-014 6.34123e-014
lhumerus -21.8282 -30.9754 12.0658
lradius 20.8215
lwrist -22.8383
lhand -4.92703 13.5442
lfingers 7.12502
lthumb 20.8635 42.4423
rfemur -9.82766 -4.55422 22.7917
rtibia 30.1095
rfoot -9.49661 -12.4386
rtoes -12.9958
lfemur -64.5265 18.3965 -9.68537
ltibia 27.2959
lfoot -9.1281 13.9109
ltoes -19.5182
1013
root 5.68024 17.9557 -6.24248 25.9694 -67.5841 -23.0895
lowerback 20.6164 -1.52079 4.45576
upperback 6.5534 -1.2362 4.71564
thorax -4.36903 -0.80677 2.83386
lowerneck -19.3219 12.8506 -5.45911
upperneck 7.80489 18.5561 -0.444434
head 4.94027 8.86588 2.37181
rclavicle -3.68746e-014 -5.96354e-015
rhumerus 117.506 224.401 180.8
rradius 31.8945
rwrist -28.0564
rhand -34.1093 10.4531
rfingers 7.12502
rthumb -7.2851 -19.4015
lclavicle -3.68746e-014 -5.96354e-015
lhumerus -23.4861 -31.1731 12.6235
lradius 20.8247
lwrist -23.0382
lhand -4.92506 13.6203
lfingers 7.12502
lthumb 20.8654 42.5183
rfemur -10.1501 -4.73022 22.4827
rtibia 30.1899
rfoot -9.19429 -12.6594
rtoes -13.3097
lfemur -64.147 18.4798 -9.53552
ltibia 27.3698
lfoot -9.21946 14.2389
ltoes -19.4117
1014
root 5.66558 17.9637 -6.13645 25.8088 -67.0068 -22.4669
lowerback 20.724 -1.5788 4.40129
upperback 6.54612 -1.30905 4.74814
thorax -4.42945 -0.842166 2.92195
lowerneck -19.3477 12.7952 -5.422
upperneck 7.58065 18.4728 -0.525296
head 4.88674 8.82926 2.32797
rclavicle 4.03533e-014 -1.17283e-014
rhumerus 117.924 223.641 181.489
rradius 33.2018
rwrist -29.3247
rhand -34.1555 10.7664
rfingers 7.12502
rthumb -7.32963 -19.0866
lclavicle 4.03533e-014 -1.17283e-014
lhumerus -25.1706 -31.2348 13.231
lradius 20.7982
lwrist -23.3711
lhand -4.90893 13.706
lfingers 7.12502
lthumb 20.8809 42.6023
rfemur -10.4874 -4.87883 22.1662
rtibia 30.3316
rfoot -8.93582 -12.8822
rtoes -13.6025
lfemur -63.7481 18.5452 -9.34062
ltibia 27.4182
lfoot -9.30151 14.5841
ltoes -19.2338
1015
root 5.65184 17.9674 -6.02822 25.6385 -66.4232 -21.8339
lowerback 20.832 -1.65176 4.34872
upperback 6.53569 -1.40064 4.77769
thorax -4.4929 -0.88651 3.01075
lowerneck -19.3644 12.7504 -5.39018
upperneck 7.3487 18.4037 -0.605902
head 4.8284 8.79995 2.28496
rclavicle -1.16289e-014 6.38099e-014
rhumerus 118.427 222.841 182.1
rradius 34.5673
rwrist -30.4868
rhand -34.1571 11.0588
rfingers 7.12502
rthumb -7.33117 -18.7941
lclavicle -1.16289e-014 6.38099e-014
lhumerus -26.8776 -31.1788 13.8737
lradius 20.7463
lwrist -23.7748
lhand -4.84807 13.7695
lfingers 7.12502
lthumb 20.9394 42.6593
rfemur -10.84 -5.01572 21.8276
rtibia 30.5302
rfoot -8.72181 -13.1073
rtoes -13.908
lfemur -63.3585 18.6072 -9.17083
ltibia 27.435
lfoot -9.35718 14.8986
ltoes -19.0381
1016
root 5.63882 17.9664 -5.91769 25.4734 -65.8391 -21.2201
lowerback 20.9548 -1.73722 4.31163
upperback 6.52258 -1.50428 4.80286
thorax -4.56669 -0.936641 3.0901
lowerneck -19.364 12.7104 -5.37614
upperneck 7.10679 18.3427 -0.677684
head 4.76158 8.77559 2.24561
rclavicle -1.83876e-014 -1.39149e-014
rhumerus 118.987 222 182.652
rradius 35.9963
rwrist -31.5196
rhand -34.1355 11.3693
rfingers 7.12502
rthumb -7.3104 -18.4844
lclavicle -1.83876e-014 -1.39149e-014
lhumerus -28.5796 -30.9685 14.5286
lradius 20.6535
lwrist -24.2572
lhand -4.75936 13.8046
lfingers 7.12502
lthumb 21.0246 42.6849
rfemur -11.1894 -5.12637 21.475
rtibia 30.7786
rfoot -8.5554 -13.3396
rtoes -14.2282
lfemur -62.9432 18.6356 -8.96137
ltibia 27.4135
lfoot -9.38581 15.239
ltoes -18.7782
1017
root 5.62624 17.9609 -5.80461 25.3085 -65.2579 -20.6205
lowerback 21.0825 -1.83152 4.28795
upperback 6.51441 -1.61718 4.82361
thorax -4.63745 -0.991249 3.15986
lowerneck -19.3523 12.6748 -5.36408
upperneck 6.84954 18.2875 -0.7591
head 4.68883 8.7541 2.20277
rclavicle 3.67752e-014 4.1546e-014
rhumerus 119.59 221.129 183.16
rradius 37.4875
rwrist -32.3786
rhand -34.119 11.7168
rfingers 7.12502
rthumb -7.29448 -18.1374
lclavicle 3.67752e-014 4.1546e-014
lhumerus -30.283 -30.6421 15.2053
lradius 20.532
lwrist -24.7324
lhand -4.66507 13.8648
lfingers 7.12502
lthumb 21.1152 42.7351
rfemur -11.5279 -5.20874 21.1042
rtibia 31.0681
rfoot -8.43997 -13.5824
rtoes -14.5473
lfemur -62.5054 18.6385 -8.72495
ltibia 27.3561
lfoot -9.37538 15.6002
ltoes -18.5329
1018
root 5.61416 17.9506 -5.68921 25.1581 -64.6767 -20.0463
lowerback 21.2034 -1.9318 4.28399
upperback 6.51619 -1.73554 4.84369
thorax -4.69395 -1.04859 3.21887
lowerneck -19.3463 12.6414 -5.35755
upperneck 6.58401 18.2374 -0.849397
head 4.61459 8.73449 2.15854
rclavicle 7.95139e-016 2.88238e-014
rhumerus 120.212 220.243 183.658
rradius 39.0354
rwrist -33.0142
rhand -34.1009 12.1027
rfingers 7.12502
rthumb -7.27693 -17.7522
lclavicle 7.95139e-016 2.88238e-014
lhumerus -31.9724 -30.1796 15.8988
lradius 20.3787
lwrist -25.1723
lhand -4.574 13.9673
lfingers 7.12502
lthumb 21.2027 42.8277
rfemur -11.8553 -5.27332 20.725
rtibia 31.3902
rfoot -8.37359 -13.8338
rtoes -14.8702
lfemur -62.0558 18.621 -8.46316
ltibia 27.2677
lfoot -9.34168 15.9864
ltoes -18.1959
1019
root 5.60248 17.9351 -5.57121 25.0484 -64.0931 -19.5241
lowerback 21.3154 -2.03536 4.30865
upperback 6.52522 -1.85349 4.87322
thorax -4.73813 -1.10599 3.2716
lowerneck -19.3512 12.6064 -5.37765
upperneck 6.32942 18.1923 -0.938731
head 4.54301 8.7162 2.11966
rclavicle -4.62174e-014 -1.17283e-014
rhumerus 120.856 219.331 184.158
rradius 40.6339
rwrist -33.3999
rhand -34.0921 12.5263
rfingers 7.12502
rthumb -7.26847 -17.3289
lclavicle -4.62174e-014 -1.17283e-014
lhumerus -33.6539 -29.5778 16.6172
lradius 20.2034
lwrist -25.5656
lhand -4.52112 14.1281
lfingers 7.12502
lthumb 21.2535 42.9828
rfemur -12.1727 -5.32156 20.3515
rtibia 31.7435
rfoot -8.36141 -14.0957
rtoes -15.1944
lfemur -61.599 18.5842 -8.16109
ltibia 27.1566
lfoot -9.30092 16.4101
ltoes -17.7863
1020
root 5.59094 17.9143 -5.44995 24.9829 -63.5119 -19.0572
lowerback 21.4131 -2.14419 4.36753
upperback 6.543 -1.97306 4.90987
thorax -4.76586 -1.16443 3.31245
lowerneck -19.3796 12.5827 -5.38136
upperneck 6.09615 18.1628 -1.04671
head 4.48458 8.70324 2.07741
rclavicle -4.13472e-014 -5.36719e-015
rhumerus 121.523 218.405 184.668
rradius 42.2815
rwrist -33.5358
rhand -34.0691 12.9489
rfingers 7.12502
rthumb -7.24628 -16.9071
lclavicle -4.13472e-014 -5.36719e-015
lhumerus -35.3408 -28.8679 17.3673
lradius 20.0166
lwrist -25.8946
lhand -4.47272 14.3461
lfingers 7.12502
lthumb 21.3 43.1956
rfemur -12.4816 -5.36689 19.984
rtibia 32.1311
rfoot -8.39915 -14.3591
rtoes -15.5457
lfemur -61.1354 18.526 -7.81361
ltibia 27.0305
lfoot -9.27072 16.8946
ltoes -17.2962
1021
root 5.57925 17.8876 -5.32616 25.0018 -62.9227 -18.6831
lowerback 21.4964 -2.24837 4.47902
upperback 6.55975 -2.07591 4.96692
thorax -4.78822 -1.21506 3.34108
lowerneck -19.4043 12.5604 -5.37392
upperneck 5.86844 18.1358 -1.18481
head 4.43126 8.68925 2.02559
rclavicle -2.38542e-015 -2.78299e-014
rhumerus 122.167 217.461 185.253
rradius 43.9854
rwrist -33.4526
rhand -34.0315 13.3643
rfingers 7.12502
rthumb -7.20998 -16.4929
lclavicle -2.38542e-015 -2.78299e-014
lhumerus -36.987 -28.0168 18.1263
lradius 19.8182
lwrist -26.2318
lhand -4.41092 14.624
lfingers 7.12502
lthumb 21.3593 43.4668
rfemur -12.7945 -5.4103 19.6514
rtibia 32.5611
rfoot -8.48991 -14.6347
rtoes -15.9189
lfemur -60.6999 18.4991 -7.45635
ltibia 26.8967
lfoot -9.25119 17.387
ltoes -16.8367
1022
root 5.56797 17.8547 -5.19906 25.0743 -62.3439 -18.3737
lowerback 21.585 -2.35363 4.60567
upperback 6.57144 -2.17532 5.04155
thorax -4.81863 -1.26436 3.38026
lowerneck -19.4267 12.5491 -5.36469
upperneck 5.65808 18.1251 -1.33582
head 4.38413 8.68171 1.97192
rclavicle -9.34288e-015 8.77634e-014
rhumerus 122.848 216.506 185.873
rradius 45.739
rwrist -33.1764
rhand -33.9436 13.7797
rfingers 7.12502
rthumb -7.12511 -16.0803
lclavicle -9.34288e-015 8.77634e-014
lhumerus -38.6399 -27.0072 18.8811
lradius 19.6097
lwrist -26.6259
lhand -4.31982 14.9088
lfingers 7.12502
lthumb 21.4468 43.7417
rfemur -13.1141 -5.45089 19.3328
rtibia 33.0421
rfoot -8.6262 -14.916
rtoes -16.3342
lfemur -60.2753 18.4872 -7.07861
ltibia 26.7587
lfoot -9.25634 17.9226
ltoes -16.4196
